#!OML:ASF F:\VICON\USERDATA\INSTALL\Justin_Nancy\Justin_Nancy.ASF
:FULLY-SPECIFIED
:DEGREES
141
root 4.04404 16.812 2.11658 -66.7771 -84.0153 76.6176
lowerback 7.31209 1.77925 -1.2434
upperback -1.1074 2.33052 1.47833
thorax -5.36856 1.21003 1.95969
lowerneck -18.1456 -5.11076 -10.8005
upperneck 20.2665 -5.47435 5.62802
head 9.90341 -2.78077 2.98423
rclavicle -2.18663e-014 -3.18055e-015
rhumerus -30.9981 -0.0397602 -87.9418
rradius 59.3077
rwrist -4.80329
rhand -20.1451 14.187
rfingers 7.12502
rthumb 6.19976 -15.7022
lclavicle -2.18663e-014 -3.18055e-015
lhumerus -44.1663 25.7052 71.339
lradius 25.3781
lwrist -7.98348
lhand -22.0388 23.5934
lfingers 7.12502
lthumb 4.37134 53.5282
rfemur 21.4754 7.27999 26.9507
rtibia 2.22639e-014
rfoot -10.4147 -2.66472
rtoes 7.53259
lfemur -37.0658 -1.34069 -9.50706
ltibia 20.8967
lfoot -11.9842 20.1277
ltoes -13.16
142
root 3.83588 16.8002 2.27447 -65.9756 -83.5171 75.1713
lowerback 7.57498 1.60849 -1.30766
upperback -0.883046 2.09113 1.45597
thorax -5.27289 1.09031 1.99791
lowerneck -18.4342 -4.98075 -10.6821
upperneck 20.5074 -5.23647 5.35293
head 10.0097 -2.69256 2.90012
rclavicle 1.19271e-015 2.06736e-014
rhumerus -31.3701 -1.03654 -86.9364
rradius 58.0048
rwrist -5.3735
rhand -20.019 13.7962
rfingers 7.12502
rthumb 6.32144 -16.0895
lclavicle 1.19271e-015 2.06736e-014
lhumerus -43.7067 24.9793 72.0454
lradius 26.6533
lwrist -6.62746
lhand -23.0037 23.5896
lfingers 7.12502
lthumb 3.43954 53.5416
rfemur 22.9267 6.70031 25.9305
rtibia -6.36111e-015
rfoot -9.88628 -1.83457
rtoes 7.25644
lfemur -36.5812 -0.541754 -11.4901
ltibia 20.959
lfoot -11.688 17.3235
ltoes -13.757
143
root 3.62747 16.7893 2.3893 -71.3343 -83.1007 80.2614
lowerback 7.58204 1.71618 -2.21095
upperback -0.823801 2.15019 1.42375
thorax -5.25151 1.14533 2.46587
lowerneck -18.1081 -5.08749 -11.1198
upperneck 20.3285 -5.42201 5.88475
head 9.93144 -2.75516 3.13692
rclavicle -1.90833e-014 -9.54166e-015
rhumerus -31.8136 -1.86897 -86.0624
rradius 56.4582
rwrist -5.64142
rhand -19.6614 13.3764
rfingers 7.12502
rthumb 6.66668 -16.4986
lclavicle -1.90833e-014 -9.54166e-015
lhumerus -43.239 24.0677 72.6484
lradius 27.7267
lwrist -5.19638
lhand -23.5626 23.3992
lfingers 7.12502
lthumb 2.89982 53.3593
rfemur 23.9473 6.87065 24.8071
rtibia 3.18055e-014
rfoot -8.88249 -1.16263
rtoes 4.8245
lfemur -36.3084 0.314625 -13.1827
ltibia 21.4433
lfoot -11.7961 14.9702
ltoes -15.4814
144
root 3.41942 16.7766 2.52483 -67.8295 -83.0395 76.427
lowerback 7.66204 1.5635 -2.1286
upperback -0.787405 1.95662 1.51867
thorax -5.24724 1.04783 2.54127
lowerneck -18.9635 -4.77512 -9.86481
upperneck 21.334 -4.98024 4.57454
head 10.3368 -2.60869 2.52461
rclavicle -8.34896e-015 9.54166e-015
rhumerus -32.3609 -2.6385 -85.0623
rradius 54.8542
rwrist -5.62518
rhand -19.8406 12.8631
rfingers 7.12502
rthumb 6.49368 -17.0174
lclavicle -8.34896e-015 9.54166e-015
lhumerus -42.8193 23.1403 73.2492
lradius 28.9156
lwrist -3.44692
lhand -24.0002 23.2802
lfingers 7.12502
lthumb 2.4772 53.2456
rfemur 24.9242 6.22004 24.3289
rtibia -3.18055e-015
rfoot -7.70713 -0.346313
rtoes 3.09978
lfemur -36.2277 0.396068 -14.133
ltibia 21.9327
lfoot -12.0017 12.075
ltoes -15.7155
145
root 3.1959 16.7717 2.67592 -63.453 -84.0138 71.6456
lowerback 7.63237 1.51034 -0.770128
upperback -0.71237 2.02036 1.79875
thorax -5.11721 1.04048 2.06217
lowerneck -17.0436 -5.5879 -12.1616
upperneck 19.4316 -6.30986 7.51911
head 9.59541 -3.07298 3.76483
rclavicle 8.74653e-015 -2.22639e-014
rhumerus -33.237 -2.02176 -84.0878
rradius 53.466
rwrist -6.69131
rhand -20.4929 11.9208
rfingers 7.12502
rthumb 5.86396 -17.9781
lclavicle 8.74653e-015 -2.22639e-014
lhumerus -42.5169 22.5407 73.4914
lradius 30.1863
lwrist -2.1595
lhand -23.7812 23.1983
lfingers 7.12502
lthumb 2.68864 53.1611
rfemur 25.9381 5.92748 24.8876
rtibia 7.63333e-014
rfoot -6.2099 0.349177
rtoes 3.48236
lfemur -36.1867 -0.338857 -13.4314
ltibia 23.1153
lfoot -12.3772 10.1792
ltoes -14.3141
146
root 2.9194 16.7886 2.83349 -76.1404 -81.7446 83.4301
lowerback 7.64965 1.81211 -3.11373
upperback -0.435286 2.17493 1.04561
thorax -4.90473 1.1673 2.58022
lowerneck -17.9293 -4.94811 -10.4483
upperneck 21.029 -5.42826 5.61743
head 10.1182 -2.75606 2.93865
rclavicle -1.19271e-014 -3.65764e-014
rhumerus -33.7945 -3.08885 -82.9051
rradius 51.3816
rwrist -6.18766
rhand -20.4488 11.4691
rfingers 7.12502
rthumb 5.90656 -18.4286
lclavicle -1.19271e-014 -3.65764e-014
lhumerus -42.5324 22.145 73.574
lradius 31.3765
lwrist -1.27511
lhand -23.8034 23.3664
lfingers 7.12502
lthumb 2.66727 53.3295
rfemur 27.9091 6.42942 21.4677
rtibia -1.90833e-014
rfoot -4.82782 0.775928
rtoes 1.25829
lfemur -34.5551 -1.8315 -16.4757
ltibia 24.1313
lfoot -12.3258 9.24585
ltoes -12.918
147
root 2.72596 16.7899 2.93562 -60.9708 -84.3708 68.5531
lowerback 7.55138 1.47209 -0.329924
upperback -0.935117 2.02245 2.02009
thorax -5.29749 1.03348 2.04467
lowerneck -17.9656 -4.70368 -10.0319
upperneck 21.7643 -5.12378 5.11074
head 10.3354 -2.6574 2.7389
rclavicle 2.18663e-015 -1.74931e-014
rhumerus -34.4012 -4.49344 -81.605
rradius 49.1381
rwrist -5.60486
rhand -20.1012 11.1949
rfingers 7.12502
rthumb 6.24213 -18.6932
lclavicle 2.18663e-015 -1.74931e-014
lhumerus -42.8817 21.8498 73.7509
lradius 32.5585
lwrist -1.03668
lhand -24.2516 23.472
lfingers 7.12502
lthumb 2.23437 53.4401
rfemur 27.7194 5.40116 24.3567
rtibia -1.27222e-014
rfoot -2.12877 1.45121
rtoes -2.50775
lfemur -35.9081 -2.22382 -13.4504
ltibia 25.7336
lfoot -10.6903 4.72126
ltoes -11.5938
148
root 2.45503 16.8189 3.11561 -70.1671 -82.4855 76.9177
lowerback 7.73624 1.54096 -1.93949
upperback -0.827466 1.93977 1.43879
thorax -5.32048 1.03414 2.3513
lowerneck -17.9104 -4.70115 -10.0878
upperneck 22.3837 -5.1273 5.00551
head 10.5496 -2.69288 2.71464
rclavicle -1.74931e-014 4.77083e-015
rhumerus -34.9274 -5.99979 -80.3294
rradius 46.6676
rwrist -4.34499
rhand -19.4835 10.8789
rfingers 7.12502
rthumb 6.83839 -18.9907
lclavicle -1.74931e-014 4.77083e-015
lhumerus -43.052 21.4318 73.9059
lradius 33.4528
lwrist -1.19868
lhand -24.2877 23.8189
lfingers 7.12502
lthumb 2.19951 53.7873
rfemur 26.757 5.3782 21.0819
rtibia 5.20788
rfoot -2.07435 2.71037
rtoes -2.52281
lfemur -34.4571 -5.10466 -15.3716
ltibia 26.5688
lfoot -10.1058 2.53354
ltoes -7.79346
149
root 2.28855 16.8099 3.18788 -37.2505 -84.7601 44.7895
lowerback 7.44796 0.868715 1.41987
upperback -1.57973 1.41572 2.62312
thorax -5.86477 0.684625 1.76419
lowerneck -17.8743 -4.77366 -10.4262
upperneck 22.974 -5.23778 5.23318
head 10.7862 -2.76199 2.84153
rclavicle -9.14409e-015 -1.74931e-014
rhumerus -35.4254 -7.63573 -79.0937
rradius 44.0696
rwrist -2.48843
rhand -19.0274 10.8257
rfingers 7.12502
rthumb 7.2787 -19.0291
lclavicle -9.14409e-015 -1.74931e-014
lhumerus -43.0175 21.0185 73.9448
lradius 34.1938
lwrist -0.825
lhand -24.8458 24.1556
lfingers 7.12502
lthumb 1.66046 54.1288
rfemur 22.6637 3.29708 24.7866
rtibia 11.1622
rfoot -1.04729 3.66889
rtoes -3.52732
lfemur -36.7026 -5.82733 -11.1166
ltibia 27.9241
lfoot -9.09095 -2.06237
ltoes -6.61502
